<?xml version="1.0" standalone="no"?>
<!DOCTYPE svg PUBLIC "-//W3C//DTD SVG 20010904//EN"
 "http://www.w3.org/TR/2001/REC-SVG-20010904/DTD/svg10.dtd">
<svg version="1.0" xmlns="http://www.w3.org/2000/svg"
 width="516.000000pt" height="257.000000pt" viewBox="0 0 516.000000 257.000000"
 preserveAspectRatio="xMidYMid meet">

<g transform="translate(0.000000,257.000000) scale(0.100000,-0.100000)"
fill="#000000" stroke="none">
<path d="M362 2019 c-44 -13 -108 -79 -121 -126 -15 -52 -15 -1184 0 -1236 14
-51 61 -102 112 -122 38 -14 248 -15 2193 -13 l2150 3 42 28 c23 15 51 45 62
67 19 38 20 57 20 656 l0 617 -25 43 c-18 30 -40 49 -77 68 l-52 26 -2135 -1
c-1314 0 -2149 -4 -2169 -10z m977 -471 l0 -103 -223 -190 -224 -190 229 -3
229 -2 0 -80 0 -80 -370 0 -370 0 0 98 0 98 227 194 226 195 -211 3 -212 2 0
80 0 80 350 0 350 0 -1 -102z m818 -63 c46 -88 133 -256 194 -372 l110 -213
-123 0 -124 0 -37 75 -37 75 -213 0 -213 0 -37 -75 -37 -75 -115 0 -115 0 29
53 c16 28 93 174 171 322 78 149 156 294 172 323 l30 53 130 -3 131 -3 84
-160z m635 3 l3 -161 148 161 149 162 131 0 131 0 -29 -32 c-16 -18 -89 -94
-162 -168 l-133 -136 136 -159 c75 -88 154 -181 176 -207 l40 -48 -144 0 -145
0 -149 189 -149 190 -3 -190 -2 -189 -110 0 -110 0 0 375 0 375 110 0 110 0 2
-162z m1456 -207 c106 -203 192 -372 192 -375 0 -3 -54 -6 -120 -6 l-120 0
-37 75 -37 75 -213 0 -213 0 -37 -75 -37 -75 -114 0 -113 0 73 138 c40 76 129
244 198 375 l125 237 131 0 130 0 192 -369z"/>
<path d="M1853 1340 l-72 -150 146 0 c84 0 143 4 141 9 -12 35 -134 290 -138
290 -3 0 -37 -67 -77 -149z"/>
<path d="M3842 1343 l-71 -148 75 -3 c41 -2 106 -2 144 0 l70 3 -66 140 c-36
77 -69 143 -73 148 -4 4 -40 -59 -79 -140z"/>
</g>
</svg>
